{
  "accessors": [
    {
      "bufferView": 2,
      "componentType": 5126,
      "count": 8,
      "max": [
        0.8703010082244873,
        -8.9139165878295898,
        153.59759521484375
      ],
      "min": [
        -0.74681997299194336,
        -9.4138727188110352,
        152.51109313964844
      ],
      "type": "VEC3"
    },
    {
      "bufferView": 1,
      "componentType": 5126,
      "count": 8,
      "max": [
        0,
        0
      ],
      "min": [
        0,
        0
      ],
      "type": "VEC2"
    },
    {
      "bufferView": 0,
      "componentType": 5125,
      "count": 10,
      "max": [
        7
      ],
      "min": [
        0
      ],
      "type": "SCALAR"
    },
    {
      "bufferView": 2,
      "byteOffset": 96,
      "componentType": 5126,
      "count": 3393,
      "max": [
        10.090201377868652,
        12.10479736328125,
        165.9075927734375
      ],
      "min": [
        -10.090701103210449,
        -9.0622463226318359,
        135.71098327636719
      ],
      "type": "VEC3"
    },
    {
      "bufferView": 2,
      "byteOffset": 40812,
      "componentType": 5126,
      "count": 3393,
      "max": [
        0.9998742938041687,
        0.99886155128479004,
        1
      ],
      "min": [
        -0.9995843768119812,
        -0.99998700618743896,
        -1
      ],
      "type": "VEC3"
    },
    {
      "bufferView": 3,
      "componentType": 5126,
      "count": 3393,
      "max": [
        1,
        0.99985933303833008,
        0.99985867738723755,
        1
      ],
      "min": [
        -1,
        -0.99983704090118408,
        -0.99584150314331055,
        -1
      ],
      "type": "VEC4"
    },
    {
      "bufferView": 1,
      "byteOffset": 64,
      "componentType": 5126,
      "count": 3393,
      "max": [
        0.9916989803314209,
        0.99743497371673584
      ],
      "min": [
        0.0047450000420212746,
        0.0034179999493062496
      ],
      "type": "VEC2"
    },
    {
      "bufferView": 0,
      "byteOffset": 40,
      "componentType": 5125,
      "count": 17778,
      "max": [
        3392
      ],
      "min": [
        0
      ],
      "type": "SCALAR"
    },
    {
      "bufferView": 2,
      "byteOffset": 81528,
      "componentType": 5126,
      "count": 7342,
      "max": [
        37.434524536132812,
        17.374105453491211,
        146.85610961914062
      ],
      "min": [
        -37.434528350830078,
        -18.060302734375,
        -0.42989999055862427
      ],
      "type": "VEC3"
    },
    {
      "bufferView": 2,
      "byteOffset": 169632,
      "componentType": 5126,
      "count": 7342,
      "max": [
        0.99987071752548218,
        0.99997198581695557,
        0.99545162916183472
      ],
      "min": [
        -0.99987071752548218,
        -0.99993574619293213,
        -0.99444437026977539
      ],
      "type": "VEC3"
    },
    {
      "bufferView": 3,
      "byteOffset": 54288,
      "componentType": 5126,
      "count": 7342,
      "max": [
        0.99999868869781494,
        0.99993294477462769,
        0.99938607215881348,
        1
      ],
      "min": [
        -0.9999995231628418,
        -0.99989026784896851,
        -0.99978131055831909,
        -1
      ],
      "type": "VEC4"
    },
    {
      "bufferView": 1,
      "byteOffset": 27208,
      "componentType": 5126,
      "count": 7342,
      "max": [
        0.99365198612213135,
        0.99562102556228638
      ],
      "min": [
        0.0025559999048709869,
        0.0034179999493062496
      ],
      "type": "VEC2"
    },
    {
      "bufferView": 0,
      "byteOffset": 71152,
      "componentType": 5125,
      "count": 37068,
      "max": [
        7341
      ],
      "min": [
        0
      ],
      "type": "SCALAR"
    },
    {
      "bufferView": 2,
      "byteOffset": 257736,
      "componentType": 5126,
      "count": 2278,
      "max": [
        11.127900123596191,
        12.911602973937988,
        168.44100952148438
      ],
      "min": [
        -10.590800285339355,
        -14.384801864624023,
        115.55420684814453
      ],
      "type": "VEC3"
    },
    {
      "bufferView": 2,
      "byteOffset": 285072,
      "componentType": 5126,
      "count": 2278,
      "max": [
        0.99939084053039551,
        0.99992275238037109,
        0.99741071462631226
      ],
      "min": [
        -0.99988639354705811,
        -0.99593538045883179,
        -0.99258631467819214
      ],
      "type": "VEC3"
    },
    {
      "bufferView": 3,
      "byteOffset": 171760,
      "componentType": 5126,
      "count": 2278,
      "max": [
        1,
        0.99874132871627808,
        0.99978148937225342,
        1
      ],
      "min": [
        -1,
        -0.99809932708740234,
        -0.99992519617080688,
        -1
      ],
      "type": "VEC4"
    },
    {
      "bufferView": 1,
      "byteOffset": 85944,
      "componentType": 5126,
      "count": 2278,
      "max": [
        0.99121099710464478,
        0.99414801597595215
      ],
      "min": [
        0.0088419998064637184,
        0.0068359998986124992
      ],
      "type": "VEC2"
    },
    {
      "bufferView": 0,
      "byteOffset": 219424,
      "componentType": 5125,
      "count": 10656,
      "max": [
        2277
      ],
      "min": [
        0
      ],
      "type": "SCALAR"
    }
  ],
  "asset": {
    "extras": {
      "author": "oshkosh9 (https://sketchfab.com/oshkosh9)",
      "license": "CC-BY-4.0 (http://creativecommons.org/licenses/by/4.0/)",
      "source": "https://sketchfab.com/3d-models/fortnite-ikonik-6769d262d7fc457abaa1a9f8f6d2faaf",
      "title": "Fortnite - IKONIK"
    },
    "generator": "Sketchfab-5.13.1",
    "version": "2.0"
  },
  "bufferViews": [
    {
      "buffer": 0,
      "byteLength": 262048,
      "byteOffset": 0,
      "name": "floatBufferViews",
      "target": 34963
    },
    {
      "buffer": 0,
      "byteLength": 104168,
      "byteOffset": 262048,
      "byteStride": 8,
      "name": "floatBufferViews",
      "target": 34962
    },
    {
      "buffer": 0,
      "byteLength": 312408,
      "byteOffset": 366216,
      "byteStride": 12,
      "name": "floatBufferViews",
      "target": 34962
    },
    {
      "buffer": 0,
      "byteLength": 208208,
      "byteOffset": 678624,
      "byteStride": 16,
      "name": "floatBufferViews",
      "target": 34962
    }
  ],
  "buffers": [
    {
      "byteLength": 886832,
      "uri": "scene.bin"
    }
  ],
  "images": [
    {
      "uri": "textures/M_MED_Kpop_Fashion_Hat_baseColor.png"
    },
    {
      "uri": "textures/M_MED_ASN_Mansu_Head_01_baseColor.png"
    },
    {
      "uri": "textures/M_MED_KpopFashion_Body_baseColor.png"
    }
  ],
  "materials": [
    {
      "doubleSided": true,
      "name": "M_MED_ASN_Mansu_Head_01",
      "pbrMetallicRoughness": {
        "baseColorFactor": [
          1,
          1,
          1,
          1
        ],
        "baseColorTexture": {
          "index": 1,
          "texCoord": 0
        },
        "metallicFactor": 0,
        "roughnessFactor": 0.59999999999999998
      }
    },
    {
      "doubleSided": true,
      "name": "M_MED_KpopFashion_Body",
      "pbrMetallicRoughness": {
        "baseColorFactor": [
          1,
          1,
          1,
          1
        ],
        "baseColorTexture": {
          "index": 2,
          "texCoord": 0
        },
        "metallicFactor": 0,
        "roughnessFactor": 0.59999999999999998
      }
    },
    {
      "doubleSided": true,
      "name": "M_MED_Kpop_Fashion_Hat",
      "pbrMetallicRoughness": {
        "baseColorFactor": [
          1,
          1,
          1,
          1
        ],
        "baseColorTexture": {
          "index": 0,
          "texCoord": 0
        },
        "metallicFactor": 0,
        "roughnessFactor": 0.59999999999999998
      }
    }
  ],
  "meshes": [
    {
      "primitives": [
        {
          "attributes": {
            "POSITION": 0,
            "TEXCOORD_0": 1
          },
          "indices": 2,
          "material": 0,
          "mode": 1
        }
      ]
    },
    {
      "primitives": [
        {
          "attributes": {
            "NORMAL": 4,
            "POSITION": 3,
            "TANGENT": 5,
            "TEXCOORD_0": 6
          },
          "indices": 7,
          "material": 0,
          "mode": 4
        }
      ]
    },
    {
      "primitives": [
        {
          "attributes": {
            "NORMAL": 9,
            "POSITION": 8,
            "TANGENT": 10,
            "TEXCOORD_0": 11
          },
          "indices": 12,
          "material": 1,
          "mode": 4
        }
      ]
    },
    {
      "primitives": [
        {
          "attributes": {
            "NORMAL": 14,
            "POSITION": 13,
            "TANGENT": 15,
            "TEXCOORD_0": 16
          },
          "indices": 17,
          "material": 2,
          "mode": 4
        }
      ]
    }
  ],
  "nodes": [
    {
      "children": [
        1
      ],
      "name": "RootNode (gltf orientation matrix)",
      "rotation": [
        -0.70710678118654746,
        -0,
        -0,
        0.70710678118654757
      ]
    },
    {
      "children": [
        2
      ],
      "name": "RootNode (model correction matrix)"
    },
    {
      "children": [
        3,
        4,
        5,
        6
      ],
      "name": "ikonik.obj.cleaner.materialmerger.gles"
    },
    {
      "mesh": 0,
      "name": ""
    },
    {
      "mesh": 1,
      "name": ""
    },
    {
      "mesh": 2,
      "name": ""
    },
    {
      "mesh": 3,
      "name": ""
    }
  ],
  "samplers": [
    {
      "magFilter": 9729,
      "minFilter": 9987,
      "wrapS": 10497,
      "wrapT": 10497
    }
  ],
  "scene": 0,
  "scenes": [
    {
      "name": "OSG_Scene",
      "nodes": [
        0
      ]
    }
  ],
  "textures": [
    {
      "sampler": 0,
      "source": 0
    },
    {
      "sampler": 0,
      "source": 1
    },
    {
      "sampler": 0,
      "source": 2
    }
  ]
}

