{
  "accessors": [
    {
      "bufferView": 2,
      "componentType": 5126,
      "count": 1073,
      "max": [
        1.7318679094314575,
        0.89525926113128662,
        0.77348339557647705
      ],
      "min": [
        -0.93197929859161377,
        -0.90461760759353638,
        -1.7417253255844116
      ],
      "type": "VEC3"
    },
    {
      "bufferView": 2,
      "byteOffset": 12876,
      "componentType": 5126,
      "count": 1073,
      "max": [
        0.99999415874481201,
        0.99999082088470459,
        0.99973857402801514
      ],
      "min": [
        -0.99999117851257324,
        -0.99999523162841797,
        -1
      ],
      "type": "VEC3"
    },
    {
      "bufferView": 1,
      "componentType": 5126,
      "count": 1073,
      "max": [
        0.8750002384185791,
        1.0000002384185791
      ],
      "min": [
        0.12500001490116119,
        0
      ],
      "type": "VEC2"
    },
    {
      "bufferView": 0,
      "componentType": 5125,
      "count": 4536,
      "max": [
        1072
      ],
      "min": [
        0
      ],
      "type": "SCALAR"
    },
    {
      "bufferView": 2,
      "byteOffset": 25752,
      "componentType": 5126,
      "count": 61,
      "max": [
        -0.61807882785797119,
        0.53248709440231323,
        0.5347905158996582
      ],
      "min": [
        -0.92645800113677979,
        -0.54594498872756958,
        0.17462792992591858
      ],
      "type": "VEC3"
    },
    {
      "bufferView": 2,
      "byteOffset": 26484,
      "componentType": 5126,
      "count": 61,
      "max": [
        0.027344623580574989,
        0.96965599060058594,
        0.99710726737976074
      ],
      "min": [
        -0.98975843191146851,
        -0.98022037744522095,
        -0.78294414281845093
      ],
      "type": "VEC3"
    },
    {
      "bufferView": 1,
      "byteOffset": 8584,
      "componentType": 5126,
      "count": 61,
      "max": [
        0.61257511377334595,
        0.23321244120597839
      ],
      "min": [
        0.57488268613815308,
        0.023265879601240158
      ],
      "type": "VEC2"
    },
    {
      "bufferView": 0,
      "byteOffset": 18144,
      "componentType": 5125,
      "count": 216,
      "max": [
        60
      ],
      "min": [
        0
      ],
      "type": "SCALAR"
    }
  ],
  "asset": {
    "extras": {
      "author": "salman (https://sketchfab.com/salmansyed088)",
      "license": "CC-BY-4.0 (http://creativecommons.org/licenses/by/4.0/)",
      "source": "https://sketchfab.com/3d-models/among-us-b540f6403e51404f86da440675ddc81e",
      "title": "Among Us"
    },
    "generator": "Sketchfab-9.80.0",
    "version": "2.0"
  },
  "bufferViews": [
    {
      "buffer": 0,
      "byteLength": 19008,
      "byteOffset": 0,
      "name": "floatBufferViews",
      "target": 34963
    },
    {
      "buffer": 0,
      "byteLength": 9072,
      "byteOffset": 19008,
      "byteStride": 8,
      "name": "floatBufferViews",
      "target": 34962
    },
    {
      "buffer": 0,
      "byteLength": 27216,
      "byteOffset": 28080,
      "byteStride": 12,
      "name": "floatBufferViews",
      "target": 34962
    }
  ],
  "buffers": [
    {
      "byteLength": 55296,
      "uri": "scene.bin"
    }
  ],
  "materials": [
    {
      "doubleSided": true,
      "emissiveFactor": [
        0,
        0,
        0
      ],
      "name": "Material",
      "pbrMetallicRoughness": {
        "baseColorFactor": [
          0.017851200000000001,
          0.0014567499999999999,
          0.00187714,
          1
        ],
        "metallicFactor": 0,
        "roughnessFactor": 0.0015288005419580868
      }
    },
    {
      "doubleSided": true,
      "emissiveFactor": [
        0,
        0,
        0
      ],
      "name": "Material.002",
      "pbrMetallicRoughness": {
        "baseColorFactor": [
          0.94039099999999998,
          0.94039099999999998,
          0.94039099999999998,
          1
        ],
        "metallicFactor": 0.33548391938601685,
        "roughnessFactor": 0
      }
    }
  ],
  "meshes": [
    {
      "name": "Cube_Material_0",
      "primitives": [
        {
          "attributes": {
            "NORMAL": 1,
            "POSITION": 0,
            "TEXCOORD_0": 2
          },
          "indices": 3,
          "material": 0,
          "mode": 4
        }
      ]
    },
    {
      "name": "Cube_Material.002_0",
      "primitives": [
        {
          "attributes": {
            "NORMAL": 5,
            "POSITION": 4,
            "TEXCOORD_0": 6
          },
          "indices": 7,
          "material": 1,
          "mode": 4
        }
      ]
    }
  ],
  "nodes": [
    {
      "children": [
        1
      ],
      "name": "RootNode (gltf orientation matrix)",
      "rotation": [
        -0.70710678118654746,
        -0,
        -0,
        0.70710678118654757
      ]
    },
    {
      "children": [
        2
      ],
      "name": "RootNode (model correction matrix)"
    },
    {
      "children": [
        3
      ],
      "matrix": [
        1,
        0,
        0,
        0,
        0,
        0,
        1,
        0,
        0,
        -1,
        0,
        0,
        0,
        0,
        0,
        1
      ],
      "name": "e7b73b8b55ff4fa5ae08d7567c55a63e.fbx"
    },
    {
      "children": [
        4
      ],
      "name": "RootNode"
    },
    {
      "children": [
        5,
        6
      ],
      "matrix": [
        121.54695892333984,
        0,
        0,
        0,
        -0,
        -2.6847043852442255e-05,
        -164.78598022460719,
        0,
        0,
        199.51910400390361,
        -3.2505787975965877e-05,
        0,
        -547.96063232421875,
        337.46652221679688,
        0,
        1
      ],
      "name": "Cube"
    },
    {
      "mesh": 0,
      "name": "Cube_Material_0"
    },
    {
      "mesh": 1,
      "name": "Cube_Material.002_0"
    }
  ],
  "scene": 0,
  "scenes": [
    {
      "name": "OSG_Scene",
      "nodes": [
        0
      ]
    }
  ]
}

