{
  "accessors": [
    {
      "bufferView": 3,
      "componentType": 5126,
      "count": 162,
      "max": [
        89.461776733398438,
        84.760147094726562,
        78.583930969238281
      ],
      "min": [
        -89.461776733398438,
        -204.64508056640625,
        -78.58392333984375
      ],
      "type": "VEC3"
    },
    {
      "bufferView": 3,
      "byteOffset": 1944,
      "componentType": 5126,
      "count": 162,
      "max": [
        0.9999883770942688,
        1,
        0.9975736141204834
      ],
      "min": [
        -0.9999883770942688,
        -1,
        -0.9975736141204834
      ],
      "type": "VEC3"
    },
    {
      "bufferView": 2,
      "componentType": 5126,
      "count": 162,
      "max": [
        0.75520843267440796,
        0.88020837306976318
      ],
      "min": [
        0,
        0
      ],
      "type": "VEC2"
    },
    {
      "bufferView": 1,
      "componentType": 5125,
      "count": 876,
      "max": [
        161
      ],
      "min": [
        0
      ],
      "type": "SCALAR"
    },
    {
      "bufferView": 3,
      "byteOffset": 3888,
      "componentType": 5126,
      "count": 159,
      "max": [
        102.90800476074219,
        19.917558670043945,
        -50.188461303710938
      ],
      "min": [
        -102.90800476074219,
        -151.73873901367188,
        -137.79890441894531
      ],
      "type": "VEC3"
    },
    {
      "bufferView": 3,
      "byteOffset": 5796,
      "componentType": 5126,
      "count": 159,
      "max": [
        0.99249255657196045,
        1,
        0.99999719858169556
      ],
      "min": [
        -0.99249255657196045,
        -1,
        -0.99097311496734619
      ],
      "type": "VEC3"
    },
    {
      "bufferView": 2,
      "byteOffset": 1296,
      "componentType": 5126,
      "count": 159,
      "max": [
        0.875,
        1
      ],
      "min": [
        0.125,
        0
      ],
      "type": "VEC2"
    },
    {
      "bufferView": 1,
      "byteOffset": 3504,
      "componentType": 5125,
      "count": 564,
      "max": [
        158
      ],
      "min": [
        0
      ],
      "type": "SCALAR"
    },
    {
      "bufferView": 3,
      "byteOffset": 7704,
      "componentType": 5126,
      "count": 99,
      "max": [
        62.763435363769531,
        36.361885070800781,
        108.04743194580078
      ],
      "min": [
        -62.763423919677734,
        -45.270706176757812,
        48.191402435302734
      ],
      "type": "VEC3"
    },
    {
      "bufferView": 3,
      "byteOffset": 8892,
      "componentType": 5126,
      "count": 99,
      "max": [
        0.99424290657043457,
        0.99775475263595581,
        0.99628525972366333
      ],
      "min": [
        -0.99424290657043457,
        -0.99999350309371948,
        -0.99998331069946289
      ],
      "type": "VEC3"
    },
    {
      "bufferView": 2,
      "byteOffset": 2568,
      "componentType": 5126,
      "count": 99,
      "max": [
        0.87500011920928955,
        1.0000001192092896
      ],
      "min": [
        0.12500001490116119,
        0
      ],
      "type": "VEC2"
    },
    {
      "bufferView": 1,
      "byteOffset": 5760,
      "componentType": 5125,
      "count": 384,
      "max": [
        98
      ],
      "min": [
        0
      ],
      "type": "SCALAR"
    },
    {
      "bufferView": 5,
      "componentType": 5126,
      "count": 11,
      "max": [
        1,
        0.00029927011928521097,
        0,
        0,
        5.3379456410596049e-09,
        1,
        0.00021271742298267782,
        0,
        2.3841857377249198e-09,
        0.00021271740843076259,
        1,
        0,
        8.8367405624012463e-06,
        1.4094089269638062,
        0.50001460313796997,
        1
      ],
      "min": [
        -0.0099999997764825821,
        -1.6552139641135e-06,
        -0.0099999997764825821,
        0,
        -3.2119223947191244e-11,
        -0.0099999997764825821,
        -0.00029927014838904142,
        0,
        -0.01000028382986784,
        -2.4411257459888702e-09,
        -0.0099977375939488411,
        0,
        -6.1126870605221484e-06,
        -1.7445487976074219,
        -0.56129860877990723,
        1
      ],
      "type": "MAT4"
    },
    {
      "bufferView": 0,
      "componentType": 5123,
      "count": 162,
      "max": [
        9,
        9,
        5,
        5
      ],
      "min": [
        2,
        2,
        5,
        5
      ],
      "type": "VEC4"
    },
    {
      "bufferView": 4,
      "componentType": 5126,
      "count": 162,
      "max": [
        1,
        0.5,
        0,
        0
      ],
      "min": [
        0.5,
        0,
        0,
        0
      ],
      "type": "VEC4"
    },
    {
      "bufferView": 0,
      "byteOffset": 1296,
      "componentType": 5123,
      "count": 159,
      "max": [
        3,
        3,
        2,
        2
      ],
      "min": [
        2,
        2,
        2,
        2
      ],
      "type": "VEC4"
    },
    {
      "bufferView": 4,
      "byteOffset": 2592,
      "componentType": 5126,
      "count": 159,
      "max": [
        1,
        0.5,
        0,
        0
      ],
      "min": [
        0.5,
        0,
        0,
        0
      ],
      "type": "VEC4"
    },
    {
      "bufferView": 0,
      "byteOffset": 2568,
      "componentType": 5123,
      "count": 99,
      "max": [
        3,
        3,
        3,
        3
      ],
      "min": [
        3,
        3,
        3,
        3
      ],
      "type": "VEC4"
    },
    {
      "bufferView": 4,
      "byteOffset": 5136,
      "componentType": 5126,
      "count": 99,
      "max": [
        1,
        0,
        0,
        0
      ],
      "min": [
        1,
        0,
        0,
        0
      ],
      "type": "VEC4"
    }
  ],
  "asset": {
    "extras": {
      "author": "fnaf fan (https://sketchfab.com/lysenkooleksandr69)",
      "license": "CC-BY-4.0 (http://creativecommons.org/licenses/by/4.0/)",
      "source": "https://sketchfab.com/3d-models/among-us-428bb9a3637e458c8336e4a7aefd4e3d",
      "title": "among us"
    },
    "generator": "Sketchfab-9.55.0",
    "version": "2.0"
  },
  "bufferViews": [
    {
      "buffer": 0,
      "byteLength": 3360,
      "byteOffset": 0,
      "byteStride": 8,
      "name": "shortBufferViews",
      "target": 34962
    },
    {
      "buffer": 0,
      "byteLength": 7296,
      "byteOffset": 3360,
      "name": "floatBufferViews",
      "target": 34963
    },
    {
      "buffer": 0,
      "byteLength": 3360,
      "byteOffset": 10656,
      "byteStride": 8,
      "name": "floatBufferViews",
      "target": 34962
    },
    {
      "buffer": 0,
      "byteLength": 10080,
      "byteOffset": 14016,
      "byteStride": 12,
      "name": "floatBufferViews",
      "target": 34962
    },
    {
      "buffer": 0,
      "byteLength": 6720,
      "byteOffset": 24096,
      "byteStride": 16,
      "name": "floatBufferViews",
      "target": 34962
    },
    {
      "buffer": 0,
      "byteLength": 704,
      "byteOffset": 30816,
      "byteStride": 64,
      "name": "floatBufferViews"
    }
  ],
  "buffers": [
    {
      "byteLength": 31520,
      "uri": "scene.bin"
    }
  ],
  "extensionsRequired": [
    "KHR_materials_pbrSpecularGlossiness"
  ],
  "extensionsUsed": [
    "KHR_materials_pbrSpecularGlossiness"
  ],
  "materials": [
    {
      "doubleSided": true,
      "emissiveFactor": [
        0,
        0,
        0
      ],
      "extensions": {
        "KHR_materials_pbrSpecularGlossiness": {
          "diffuseFactor": [
            1,
            0,
            0,
            1
          ],
          "glossinessFactor": 0.19595917939999999,
          "specularFactor": [
            0,
            0,
            0
          ]
        }
      },
      "name": "SUIT"
    },
    {
      "doubleSided": true,
      "emissiveFactor": [
        0,
        0,
        0
      ],
      "extensions": {
        "KHR_materials_pbrSpecularGlossiness": {
          "diffuseFactor": [
            1,
            0,
            0,
            1
          ],
          "glossinessFactor": 0.19595917939999999,
          "specularFactor": [
            0,
            0,
            0
          ]
        }
      },
      "name": "material"
    },
    {
      "doubleSided": true,
      "emissiveFactor": [
        0,
        0,
        0
      ],
      "extensions": {
        "KHR_materials_pbrSpecularGlossiness": {
          "diffuseFactor": [
            0.061168677160403029,
            1,
            0.96061979318572255,
            1
          ],
          "glossinessFactor": 0.19595917939999999,
          "specularFactor": [
            0,
            0,
            0
          ]
        }
      },
      "name": "GLASS"
    }
  ],
  "meshes": [
    {
      "name": "Cube_SUIT_0",
      "primitives": [
        {
          "attributes": {
            "JOINTS_0": 13,
            "NORMAL": 1,
            "POSITION": 0,
            "TEXCOORD_0": 2,
            "WEIGHTS_0": 14
          },
          "indices": 3,
          "material": 0,
          "mode": 4
        }
      ]
    },
    {
      "name": "Cube_JET_0",
      "primitives": [
        {
          "attributes": {
            "JOINTS_0": 15,
            "NORMAL": 5,
            "POSITION": 4,
            "TEXCOORD_0": 6,
            "WEIGHTS_0": 16
          },
          "indices": 7,
          "material": 1,
          "mode": 4
        }
      ]
    },
    {
      "name": "Cube_GLASS_0",
      "primitives": [
        {
          "attributes": {
            "JOINTS_0": 17,
            "NORMAL": 9,
            "POSITION": 8,
            "TEXCOORD_0": 10,
            "WEIGHTS_0": 18
          },
          "indices": 11,
          "material": 2,
          "mode": 4
        }
      ]
    }
  ],
  "nodes": [
    {
      "children": [
        1
      ],
      "name": "RootNode (gltf orientation matrix)",
      "rotation": [
        -0.70710678118654746,
        -0,
        -0,
        0.70710678118654757
      ]
    },
    {
      "children": [
        2
      ],
      "name": "RootNode (model correction matrix)"
    },
    {
      "children": [
        3
      ],
      "matrix": [
        1,
        0,
        0,
        0,
        0,
        0,
        1,
        0,
        0,
        -1,
        0,
        0,
        0,
        0,
        0,
        1
      ],
      "name": "bcde257dbcbe44eba01144f06418256b.fbx"
    },
    {
      "children": [
        4,
        7,
        9
      ],
      "name": "RootNode"
    },
    {
      "children": [
        5
      ],
      "matrix": [
        -29.08647719990347,
        -5.5189064575668629,
        -95.517119101714371,
        0,
        56.639309131094492,
        79.467234285632031,
        -21.839123978419661,
        0,
        77.110087759933748,
        -60.452463565620441,
        -19.988346967737169,
        0,
        -299.69375610351562,
        265.73403930664062,
        298.84841918945312,
        1
      ],
      "name": "Light"
    },
    {
      "children": [
        6
      ],
      "matrix": [
        1,
        0,
        0,
        0,
        0,
        2.2204460492503131e-16,
        1,
        0,
        0,
        -1,
        2.2204460492503131e-16,
        0,
        0,
        0,
        0,
        1
      ],
      "name": ""
    },
    {
      "name": ""
    },
    {
      "children": [
        8
      ],
      "matrix": [
        -40.872527829163751,
        4.3711393014406398e-06,
        -91.265746415915615,
        0,
        1.7865961134286274e-06,
        99.999999999999901,
        3.9893524687700701e-06,
        0,
        91.2657464159157,
        -1.0803568963531096e-12,
        -40.872527829163793,
        0,
        297.49563598632812,
        -65.567192077636719,
        698.58929443359375,
        1
      ],
      "name": "Camera"
    },
    {
      "name": ""
    },
    {
      "children": [
        10
      ],
      "matrix": [
        100,
        0,
        0,
        0,
        0,
        -1.6292067939183141e-05,
        -99.999999999998678,
        0,
        0,
        99.999999999998678,
        -1.6292067939183141e-05,
        0,
        0,
        -140.94088745117188,
        0,
        1
      ],
      "name": "Armature"
    },
    {
      "children": [
        11,
        13,
        14,
        15,
        12
      ],
      "name": ""
    },
    {
      "children": [
        16
      ],
      "name": "_rootJoint"
    },
    {
      "matrix": [
        100.00001192093464,
        -2.864560474937923e-16,
        -2.4175404516810217e-15,
        0,
        -2.1372032336956898e-15,
        -2.6680066309527453e-10,
        -88.404042504580829,
        0,
        3.1786763279016114e-16,
        110.96559959968674,
        -3.3489074385288519e-10,
        0,
        -8.0273991308197267e-14,
        -8.3961758144027385,
        3.6309787709853936e-07,
        1
      ],
      "name": ""
    },
    {
      "mesh": 0,
      "name": "",
      "skin": 0
    },
    {
      "mesh": 1,
      "name": "",
      "skin": 0
    },
    {
      "mesh": 2,
      "name": "",
      "skin": 0
    },
    {
      "children": [
        17,
        20,
        23
      ],
      "name": "Bone.002_00",
      "rotation": [
        0.70645612478256226,
        -8.437119447535224e-08,
        -8.4216125628699956e-08,
        0.70775681734085083
      ],
      "scale": [
        1,
        0.99999994039535522,
        0.99999994039535522
      ],
      "translation": [
        -1.8696582067545813e-16,
        -0.057526171207427979,
        -0.56522023677825928
      ]
    },
    {
      "children": [
        18
      ],
      "name": "Bone_01",
      "rotation": [
        0.00091976311523467302,
        -3.5466643812494475e-15,
        -2.1928862892206524e-10,
        0.99999958276748657
      ],
      "translation": [
        -1.3467392534494138e-08,
        0.56532520055770874,
        -0.0564863421022892
      ]
    },
    {
      "children": [
        19
      ],
      "name": "Bone.001_02",
      "rotation": [
        4.65116695158585e-10,
        0.99994343519210815,
        0.010636473074555397,
        -1.947132517443606e-07
      ],
      "translation": [
        -2.0130532084886498e-18,
        0.49522879719734192,
        -8.4434681468792405e-12
      ]
    },
    {
      "name": "Bone.001_end_07",
      "rotation": [
        -1.7347234759768071e-18,
        -2.6469779601696886e-23,
        6.2038545941477076e-25,
        1
      ],
      "translation": [
        4.1359030627651384e-25,
        0.70484006404876709,
        0
      ]
    },
    {
      "children": [
        21
      ],
      "name": "Bone.004_03",
      "rotation": [
        -0.70704996585845947,
        0.0078341420739889145,
        0.70706117153167725,
        0.0091348830610513687
      ],
      "scale": [
        0.99998849630355835,
        1,
        0.99999994039535522
      ],
      "translation": [
        0.49977368116378784,
        0.51913261413574219,
        -0.056571505963802338
      ]
    },
    {
      "children": [
        22
      ],
      "name": "Bone.005_04",
      "rotation": [
        -0.005948532372713089,
        2.7697833502315916e-06,
        -4.2128370125738002e-08,
        0.99998229742050171
      ],
      "scale": [
        1,
        0.99999988079071045,
        0.99999994039535522
      ],
      "translation": [
        -3.0198066269804258e-13,
        0.28814756870269775,
        -6.2397752742526791e-08
      ]
    },
    {
      "name": "Bone.005_end_08",
      "rotation": [
        -3.2288788415854297e-19,
        -2.136980158095346e-42,
        6.6174449004242214e-24,
        1
      ],
      "translation": [
        0,
        0.2846144437789917,
        0
      ]
    },
    {
      "children": [
        24
      ],
      "name": "Bone.006_05",
      "rotation": [
        -0.7070499062538147,
        0.0078659579157829285,
        0.70706045627593994,
        0.0091668730601668358
      ],
      "scale": [
        0.99997162818908691,
        1,
        0.99999982118606567
      ],
      "translation": [
        -0.51643246412277222,
        0.54412126541137695,
        -0.056525293737649918
      ]
    },
    {
      "children": [
        25
      ],
      "name": "Bone.007_06",
      "rotation": [
        -0.0059484802186489105,
        2.8455895062506897e-06,
        -4.8735042668113238e-08,
        0.99998229742050171
      ],
      "scale": [
        1,
        0.99999988079071045,
        0.99999994039535522
      ],
      "translation": [
        9.4368957093138306e-14,
        0.28814756870269775,
        7.1712918270350201e-08
      ]
    },
    {
      "name": "Bone.007_end_09",
      "rotation": [
        -4.5515189275666414e-19,
        -2.541098841762901e-21,
        2.6469779601696886e-23,
        1
      ],
      "translation": [
        8.4703294725430034e-22,
        0.28461447358131409,
        0
      ]
    }
  ],
  "scene": 0,
  "scenes": [
    {
      "name": "OSG_Scene",
      "nodes": [
        0
      ]
    }
  ],
  "skins": [
    {
      "inverseBindMatrices": 12,
      "joints": [
        11,
        16,
        17,
        18,
        19,
        20,
        21,
        22,
        23,
        24,
        25
      ],
      "skeleton": 11
    }
  ]
}

